# xmcd
#
# Track frame offsets: 
#        150
#        11559
#        23929
#        32989
#        47777
#        56717
#        68774
#        81467
#        92144
#        102417
#        112287
#        123117
#        133224
#        142212
#        154347
#
# Disc length: 2161 seconds
#
# Revision: 0
# Processed by: cddbd v1.5.2PL0 Copyright (c) Steve Scherf et al.
# Submitted via: ExactAudioCopy v1.0b1
#
DISCID=e2086f0f
DTITLE=Tulaci - Toulani
DYEAR=1994
DGENRE=Country
TTITLE0=Toulani
TTITLE1=Cesta za sluncem
TTITLE2=Tvuj stin
TTITLE3=Slavnej den
TTITLE4=Boty
TTITLE5=Laba
TTITLE6=Samotar
TTITLE7=Jarni pisen
TTITLE8=Vzpominka
TTITLE9=Touha
TTITLE10=Sny o...
TTITLE11=Tajemstvi lesa
TTITLE12=Sosna
TTITLE13=Kriz
TTITLE14=Cesta prasna
EXTD=
EXTT0=
EXTT1=
EXTT2=
EXTT3=
EXTT4=
EXTT5=
EXTT6=
EXTT7=
EXTT8=
EXTT9=
EXTT10=
EXTT11=
EXTT12=
EXTT13=
EXTT14=
PLAYORDER=
